<svg width="42" height="34" viewBox="0 0 42 34" fill="none" xmlns="http://www.w3.org/2000/svg">
<path fill-rule="evenodd" clip-rule="evenodd" d="M27.2225 0.40625C29.9312 0.40625 32.2376 2.1381 33.0921 4.5544H14.778C12.0276 4.5544 9.3899 5.64699 7.44508 7.59181C5.50026 9.53663 4.40767 12.1744 4.40767 14.9248V24.9425C3.19418 24.5132 2.14365 23.7182 1.40076 22.667C0.657866 21.6158 0.25915 20.3601 0.259522 19.0729V6.62847C0.259522 4.97824 0.915076 3.39559 2.08197 2.2287C3.24886 1.0618 4.83151 0.40625 6.48174 0.40625H27.2225ZM35.5188 8.70255H14.778C13.1278 8.70255 11.5452 9.3581 10.3783 10.525C9.21137 11.6919 8.55582 13.2745 8.55582 14.9248V27.3692C8.55582 29.0194 9.21137 30.6021 10.3783 31.769C11.5452 32.9359 13.1278 33.5914 14.778 33.5914H35.5188C37.169 33.5914 38.7517 32.9359 39.9186 31.769C41.0854 30.6021 41.741 29.0194 41.741 27.3692V14.9248C41.741 13.2745 41.0854 11.6919 39.9186 10.525C38.7517 9.3581 37.169 8.70255 35.5188 8.70255ZM29.2966 21.147C29.2966 22.2471 28.8595 23.3022 28.0816 24.0802C27.3037 24.8581 26.2486 25.2951 25.1484 25.2951C24.0483 25.2951 22.9932 24.8581 22.2152 24.0802C21.4373 23.3022 21.0003 22.2471 21.0003 21.147C21.0003 20.0468 21.4373 18.9917 22.2152 18.2138C22.9932 17.4359 24.0483 16.9988 25.1484 16.9988C26.2486 16.9988 27.3037 17.4359 28.0816 18.2138C28.8595 18.9917 29.2966 20.0468 29.2966 21.147Z" fill="url(#paint0_linear_14032_2844)"/>
<defs>
<linearGradient id="paint0_linear_14032_2844" x1="7.82125" y1="49.8383" x2="54.1836" y2="4.7111" gradientUnits="userSpaceOnUse">
<stop stop-color="#982DEC"/>
<stop offset="0.572917" stop-color="#DC8DF8"/>
<stop offset="0.895833" stop-color="#A9C4F3"/>
</linearGradient>
</defs>
</svg>
