<svg width="38" height="34" viewBox="0 0 38 34" fill="none" xmlns="http://www.w3.org/2000/svg">
<path d="M33.934 7.66588V3.93255C33.934 1.87362 32.2596 0.199219 30.2006 0.199219H5.93398C2.84652 0.199219 0.333984 2.71175 0.333984 5.79922V28.1992C0.333984 32.3078 3.68278 33.7992 5.93398 33.7992H33.934C35.9929 33.7992 37.6673 32.1248 37.6673 30.0659V11.3992C37.6673 9.34028 35.9929 7.66588 33.934 7.66588ZM30.2006 24.4659H26.4673V16.9992H30.2006V24.4659ZM5.93398 7.66588C5.45336 7.64439 4.99954 7.43833 4.66703 7.09061C4.33453 6.7429 4.14895 6.28033 4.14895 5.79922C4.14895 5.31811 4.33453 4.85554 4.66703 4.50783C4.99954 4.16011 5.45336 3.95405 5.93398 3.93255H30.2006V7.66588H5.93398Z" fill="url(#paint0_linear_14032_2858)"/>
<defs>
<linearGradient id="paint0_linear_14032_2858" x1="7.13954" y1="50.2492" x2="53.6106" y2="10.042" gradientUnits="userSpaceOnUse">
<stop stop-color="#982DEC"/>
<stop offset="0.572917" stop-color="#DC8DF8"/>
<stop offset="0.895833" stop-color="#A9C4F3"/>
</linearGradient>
</defs>
</svg>
