<svg width="45" height="45" viewBox="0 0 45 45" fill="none" xmlns="http://www.w3.org/2000/svg">
<path d="M44.6003 25.4919C44.3632 25.0869 44.034 24.7434 43.6396 24.4893C43.2451 24.2352 42.7964 24.0777 42.3299 24.0294C43.7306 22.7192 44.6307 20.9608 44.8747 19.0574C45.1187 17.1541 44.6915 15.2252 43.6666 13.6034C42.6418 11.9816 41.0835 10.7686 39.2608 10.1737C37.438 9.57871 35.4649 9.63908 33.6818 10.3444C31.8988 11.0496 30.4175 12.3556 29.4935 14.037C28.5695 15.7184 28.2608 17.6699 28.6205 19.5547C28.9803 21.4396 29.9859 23.1397 31.464 24.3619C32.9422 25.584 34.8001 26.2516 36.7173 26.2494C36.8522 26.2494 36.9796 26.2344 37.107 26.2269L26.961 31.6569C26.961 31.6044 26.976 31.5519 26.976 31.4994C26.976 30.5048 26.5813 29.551 25.8786 28.8477C25.176 28.1445 24.223 27.7494 23.2293 27.7494H8.24267C8.12537 27.7501 8.00987 27.7784 7.90547 27.8319L5.94971 28.8069C5.84758 28.2973 5.57234 27.8388 5.17074 27.5093C4.76914 27.1798 4.26595 26.9996 3.74667 26.9994H2.248C1.65234 27.0012 1.08159 27.2388 0.660389 27.6604C0.239193 28.0819 0.00177899 28.6532 0 29.2494V42.7493C0.00177899 43.3454 0.239193 43.9167 0.660389 44.3383C1.08159 44.7598 1.65234 44.9974 2.248 44.9992H3.74667C4.3049 44.9979 4.84254 44.7881 5.25422 44.4107C5.6659 44.0333 5.92195 43.5157 5.97219 42.9592L8.06283 43.4767C8.12163 43.4916 8.18203 43.4992 8.24267 43.4992H18.5385C19.1984 43.4979 19.8466 43.3248 20.4193 42.9967L43.5138 29.5794C44.1976 29.1798 44.6956 28.5257 44.8992 27.7599C45.1028 26.9941 44.9953 26.1787 44.6003 25.4919ZM4.496 42.7493C4.496 42.9482 4.41705 43.1389 4.27653 43.2796C4.136 43.4202 3.9454 43.4992 3.74667 43.4992H2.248C2.04927 43.4992 1.85867 43.4202 1.71814 43.2796C1.57761 43.1389 1.49867 42.9482 1.49867 42.7493V29.2494C1.49867 29.0505 1.57761 28.8597 1.71814 28.7191C1.85867 28.5784 2.04927 28.4994 2.248 28.4994H3.74667C3.9454 28.4994 4.136 28.5784 4.27653 28.7191C4.41705 28.8597 4.496 29.0505 4.496 29.2494V42.7493ZM36.7173 24.7494C35.3835 24.7494 34.0796 24.3536 32.9706 23.6119C31.8615 22.8702 30.9971 21.816 30.4867 20.5826C29.9763 19.3492 29.8427 17.992 30.1029 16.6826C30.3631 15.3733 31.0054 14.1706 31.9486 13.2266C32.8918 12.2826 34.0934 11.6397 35.4017 11.3793C36.7099 11.1188 38.0659 11.2525 39.2982 11.7634C40.5305 12.2743 41.5837 13.1394 42.3248 14.2494C43.0658 15.3595 43.4613 16.6645 43.4613 17.9995C43.4586 19.7888 42.7472 21.5041 41.483 22.7694C40.2189 24.0346 38.5051 24.7467 36.7173 24.7494ZM42.7645 28.2819L19.67 41.6918C19.3266 41.8925 18.9362 41.9986 18.5385 41.9993H8.33259L5.99467 41.4218V30.4644L8.42251 29.2494H23.2293C23.8255 29.2494 24.3973 29.4864 24.8189 29.9084C25.2405 30.3303 25.4773 30.9026 25.4773 31.4994C25.4773 32.0961 25.2405 32.6684 24.8189 33.0903C24.3973 33.5123 23.8255 33.7493 23.2293 33.7493H11.9893V35.2493H23.2293C23.8031 35.2478 24.3687 35.1136 24.8821 34.8573C25.3955 34.6011 25.8428 34.2296 26.1892 33.7718L41.2808 25.7019C41.622 25.5147 42.0229 25.4689 42.3975 25.5741C42.7722 25.6793 43.0907 25.9273 43.2848 26.2648C43.4789 26.6023 43.5331 27.0025 43.4359 27.3796C43.3386 27.7567 43.0976 28.0806 42.7645 28.2819Z" fill="#E9EEF4"/>
<path d="M22.48 0C20.8497 0 19.2561 0.483849 17.9006 1.39036C16.5451 2.29687 15.4886 3.58534 14.8647 5.09281C14.2409 6.60029 14.0776 8.25907 14.3957 9.8594C14.7137 11.4597 15.4988 12.9297 16.6515 14.0835C17.8043 15.2373 19.273 16.023 20.8719 16.3413C22.4708 16.6596 24.1282 16.4963 25.6343 15.8719C27.1405 15.2474 28.4278 14.19 29.3335 12.8333C30.2392 11.4766 30.7226 9.8816 30.7226 8.24992C30.7213 6.06233 29.8524 3.96474 28.3069 2.41788C26.7614 0.871023 24.6656 0.00139077 22.48 0ZM22.48 14.9999C21.1461 14.9999 19.8423 14.604 18.7332 13.8623C17.6242 13.1206 16.7598 12.0664 16.2493 10.833C15.7389 9.59962 15.6053 8.24243 15.8656 6.93307C16.1258 5.62371 16.7681 4.42099 17.7112 3.47699C18.6544 2.533 19.8561 1.89013 21.1643 1.62968C22.4725 1.36924 23.8285 1.50291 25.0608 2.01379C26.2931 2.52468 27.3464 3.38984 28.0874 4.49986C28.8285 5.60988 29.224 6.91491 29.224 8.24992C29.2212 10.0393 28.5098 11.7545 27.2456 13.0198C25.9815 14.285 24.2677 14.9971 22.48 14.9999Z" fill="#E9EEF4"/>
<path d="M8.24267 9.75C6.61243 9.75 5.01879 10.2338 3.66329 11.1404C2.30779 12.0469 1.25131 13.3353 0.62744 14.8428C0.00357145 16.3503 -0.159661 18.0091 0.158384 19.6094C0.47643 21.2097 1.26147 22.6797 2.41423 23.8335C3.56698 24.9873 5.03569 25.773 6.63461 26.0913C8.23353 26.4096 9.89086 26.2463 11.397 25.6219C12.9032 24.9974 14.1905 23.94 15.0962 22.5833C16.0019 21.2266 16.4853 19.6316 16.4853 17.9999C16.484 15.8123 15.6151 13.7147 14.0696 12.1679C12.5241 10.621 10.4283 9.75139 8.24267 9.75ZM8.24267 24.7499C6.90884 24.7499 5.60495 24.354 4.49591 23.6123C3.38686 22.8706 2.52247 21.8164 2.01203 20.583C1.50159 19.3496 1.36804 17.9924 1.62826 16.6831C1.88847 15.3737 2.53078 14.171 3.47394 13.227C4.41711 12.283 5.61878 11.6401 6.92698 11.3797C8.23519 11.1192 9.59119 11.2529 10.8235 11.7638C12.0558 12.2747 13.1091 13.1398 13.8501 14.2499C14.5911 15.3599 14.9867 16.6649 14.9867 17.9999C14.9839 19.7893 14.2725 21.5045 13.0083 22.7698C11.7442 24.035 10.0304 24.7471 8.24267 24.7499Z" fill="#E9EEF4"/>
<path d="M7.4936 2.56031V7.49977H8.99227V2.56031L10.7105 4.28005L11.77 3.21956L8.77271 0.219588C8.63219 0.0789857 8.44163 0 8.24293 0C8.04424 0 7.85368 0.0789857 7.71315 0.219588L4.71582 3.21956L5.77538 4.28005L7.4936 2.56031Z" fill="#E9EEF4"/>
<path d="M23.2296 26.2498V21.3103L24.9478 23.03L26.0074 21.9696L23.01 18.9696C22.8695 18.829 22.6789 18.75 22.4802 18.75C22.2815 18.75 22.091 18.829 21.9505 18.9696L18.9531 21.9696L20.0127 23.03L21.7309 21.3103V26.2498H23.2296Z" fill="#E9EEF4"/>
<path d="M35.9682 2.56031V7.49977H37.4669V2.56031L39.1851 4.28005L40.2447 3.21956L37.2473 0.219588C37.1068 0.0789857 36.9162 0 36.7175 0C36.5188 0 36.3283 0.0789857 36.1878 0.219588L33.1904 3.21956L34.25 4.28005L35.9682 2.56031Z" fill="#E9EEF4"/>
<path d="M11.9894 16.5C11.9891 16.0345 11.8439 15.5807 11.574 15.2016C11.304 14.8226 10.9228 14.5371 10.4833 14.385L10.4908 12.75H8.99209L8.9846 14.25H7.48593L7.49343 12.75H5.99476L5.98727 14.25H4.49609V15.75H5.99476V20.2499H4.49609V21.7499H5.98727L5.97977 23.2199L7.47844 23.2274L7.48593 21.7499H8.9846L8.97711 23.2199L10.4758 23.2274L10.4908 21.6149C10.9274 21.4592 11.3056 21.1727 11.5737 20.7943C11.8419 20.4158 11.987 19.9639 11.9894 19.4999C11.988 18.9445 11.7796 18.4097 11.4049 17.9999C11.7796 17.5902 11.988 17.0554 11.9894 16.5ZM9.74143 20.2499H7.49343V18.7499H9.74143C9.94016 18.7499 10.1308 18.829 10.2713 18.9696C10.4118 19.1103 10.4908 19.301 10.4908 19.4999C10.4908 19.6988 10.4118 19.8896 10.2713 20.0303C10.1308 20.1709 9.94016 20.2499 9.74143 20.2499ZM9.74143 17.25H7.49343V15.75H9.74143C9.94016 15.75 10.1308 15.829 10.2713 15.9696C10.4118 16.1103 10.4908 16.3011 10.4908 16.5C10.4908 16.6989 10.4118 16.8896 10.2713 17.0303C10.1308 17.1709 9.94016 17.25 9.74143 17.25Z" fill="#E9EEF4"/>
<path d="M40.464 16.5C40.4637 16.0345 40.3185 15.5807 40.0486 15.2016C39.7786 14.8226 39.3974 14.5371 38.9579 14.385L38.9654 12.75H37.4667L37.4592 14.25H35.9605L35.968 12.75H34.4694L34.4619 14.25H32.9707V15.75H34.4694V20.2499H32.9707V21.7499H34.4619L34.4544 23.2199L35.9531 23.2274L35.9605 21.7499H37.4592L37.4517 23.2199L38.9504 23.2274L38.9654 21.6149C39.402 21.4592 39.7802 21.1727 40.0483 20.7943C40.3165 20.4158 40.4617 19.9639 40.464 19.4999C40.4626 18.9445 40.2542 18.4097 39.8796 17.9999C40.2542 17.5902 40.4626 17.0554 40.464 16.5ZM38.216 20.2499H35.968V18.7499H38.216C38.4148 18.7499 38.6054 18.829 38.7459 18.9696C38.8864 19.1103 38.9654 19.301 38.9654 19.4999C38.9654 19.6988 38.8864 19.8896 38.7459 20.0303C38.6054 20.1709 38.4148 20.2499 38.216 20.2499ZM38.216 17.25H35.968V15.75H38.216C38.4148 15.75 38.6054 15.829 38.7459 15.9696C38.8864 16.1103 38.9654 16.3011 38.9654 16.5C38.9654 16.6989 38.8864 16.8896 38.7459 17.0303C38.6054 17.1709 38.4148 17.25 38.216 17.25Z" fill="#E9EEF4"/>
<path d="M26.2267 6.74996C26.2264 6.28448 26.0812 5.83067 25.8113 5.45162C25.5413 5.07257 25.1601 4.78713 24.7206 4.63498L24.7281 3H23.2294L23.2219 4.49999H21.7232L21.7307 3H20.2321L20.2246 4.49999H18.7334V5.99997H20.2321V10.4999H18.7334V11.9999H20.2246L20.2171 13.4699L21.7157 13.4774L21.7232 11.9999H23.2219L23.2144 13.4699L24.7131 13.4774L24.7281 11.8649C25.1647 11.7092 25.5429 11.4227 25.811 11.0443C26.0792 10.6658 26.2243 10.2139 26.2267 9.74993C26.2253 9.19454 26.0169 8.65967 25.6423 8.24995C26.0169 7.84022 26.2253 7.30535 26.2267 6.74996ZM23.9787 10.4999H21.7307V8.99994H23.9787C24.1775 8.99994 24.3681 9.07896 24.5086 9.21961C24.6491 9.36026 24.7281 9.55102 24.7281 9.74993C24.7281 9.94884 24.6491 10.1396 24.5086 10.2803C24.3681 10.4209 24.1775 10.4999 23.9787 10.4999ZM23.9787 7.49996H21.7307V5.99997H23.9787C24.1775 5.99997 24.3681 6.07899 24.5086 6.21964C24.6491 6.36029 24.7281 6.55105 24.7281 6.74996C24.7281 6.94887 24.6491 7.13964 24.5086 7.28029C24.3681 7.42094 24.1775 7.49996 23.9787 7.49996Z" fill="#E9EEF4"/>
</svg>
