<svg width="34" height="37" viewBox="0 0 34 37" fill="none" xmlns="http://www.w3.org/2000/svg">
<path fill-rule="evenodd" clip-rule="evenodd" d="M1.81035 3.4176C1.86662 2.94456 2.03246 2.49116 2.29469 2.09346C2.55692 1.69576 2.90832 1.36471 3.32094 1.12665C3.73357 0.88858 4.19604 0.750054 4.67159 0.722082C5.14714 0.694109 5.62266 0.777462 6.06035 0.965513C8.27285 1.91135 13.2312 4.15926 19.5229 7.79051C25.8166 11.4238 30.2437 14.5968 32.1666 16.0363C33.8083 17.2676 33.8124 19.7093 32.1687 20.9447C30.2645 22.3759 25.8916 25.5072 19.5229 29.1863C13.1479 32.8655 8.24785 35.0863 6.05618 36.0197C4.16868 36.8259 2.05619 35.603 1.81035 33.5676C1.52285 31.1884 0.985352 25.7863 0.985352 18.4905C0.985352 11.1988 1.52077 5.79885 1.81035 3.4176Z" fill="url(#paint0_linear_14032_2989)"/>
<defs>
<linearGradient id="paint0_linear_14032_2989" x1="6.89421" y1="53.6769" x2="53.8037" y2="20.3744" gradientUnits="userSpaceOnUse">
<stop stop-color="#982DEC"/>
<stop offset="0.0001" stop-color="#DC8DF8"/>
<stop offset="0.895833" stop-color="#A9C4F3"/>
</linearGradient>
</defs>
</svg>
