<svg width="36" height="40" viewBox="0 0 36 40" fill="none" xmlns="http://www.w3.org/2000/svg">
<path d="M13.022 7.55584C12.3619 7.55584 11.7289 7.81806 11.2621 8.28482C10.7954 8.75158 10.5331 9.38464 10.5331 10.0447C10.5331 10.7048 10.7954 11.3379 11.2621 11.8046C11.7289 12.2714 12.3619 12.5336 13.022 12.5336H26.925L23.7068 15.7518C23.2535 16.2212 23.0026 16.8499 23.0083 17.5024C23.0139 18.155 23.2757 18.7793 23.7371 19.2407C24.1986 19.7022 24.8228 19.9639 25.4754 19.9696C26.128 19.9753 26.7567 19.7244 27.2261 19.271L34.6928 11.8044C35.1594 11.3376 35.4215 10.7047 35.4215 10.0447C35.4215 9.38477 35.1594 8.75182 34.6928 8.28509L27.2261 0.818422C26.9965 0.580708 26.7219 0.391099 26.4182 0.260659C26.1146 0.130219 25.788 0.0615594 25.4575 0.0586877C25.127 0.055816 24.7993 0.118789 24.4934 0.243933C24.1876 0.369076 23.9097 0.553884 23.676 0.787572C23.4423 1.02126 23.2575 1.29915 23.1323 1.60503C23.0072 1.9109 22.9442 2.23864 22.9471 2.56911C22.95 2.89958 23.0186 3.22617 23.1491 3.52983C23.2795 3.83348 23.4691 4.10812 23.7068 4.33771L26.925 7.55584H13.022Z" fill="url(#paint0_linear_14032_2831)"/>
<path d="M22.9776 32.4447C23.6377 32.4447 24.2707 32.1825 24.7375 31.7158C25.2043 31.249 25.4665 30.6159 25.4665 29.9558C25.4665 29.2957 25.2043 28.6627 24.7375 28.1959C24.2707 27.7292 23.6377 27.467 22.9776 27.467H9.07466L12.2928 24.2488C12.5305 24.0192 12.7201 23.7446 12.8506 23.4409C12.981 23.1373 13.0497 22.8107 13.0525 22.4802C13.0554 22.1497 12.9924 21.822 12.8673 21.5161C12.7421 21.2103 12.5573 20.9324 12.3236 20.6987C12.09 20.465 11.8121 20.2802 11.5062 20.155C11.2003 20.0299 10.8726 19.9669 10.5421 19.9698C10.2116 19.9727 9.88504 20.0413 9.58139 20.1718C9.27773 20.3022 9.0031 20.4918 8.77351 20.7295L1.30684 28.1962C0.840243 28.6629 0.578125 29.2959 0.578125 29.9558C0.578125 30.6158 0.840243 31.2487 1.30684 31.7155L8.77351 39.1822C9.24292 39.6355 9.87161 39.8864 10.5242 39.8807C11.1768 39.875 11.801 39.6133 12.2625 39.1518C12.7239 38.6904 12.9857 38.0661 12.9914 37.4135C12.997 36.761 12.7462 36.1323 12.2928 35.6629L9.07466 32.4447H22.9776Z" fill="url(#paint1_linear_14032_2831)"/>
<defs>
<linearGradient id="paint0_linear_14032_2831" x1="6.92978" y1="59.3771" x2="58.7249" y2="24.0875" gradientUnits="userSpaceOnUse">
<stop stop-color="#982DEC"/>
<stop offset="0.0001" stop-color="#DC8DF8"/>
<stop offset="0.895833" stop-color="#A9C4F3"/>
</linearGradient>
<linearGradient id="paint1_linear_14032_2831" x1="6.92978" y1="59.3771" x2="58.7249" y2="24.0875" gradientUnits="userSpaceOnUse">
<stop stop-color="#982DEC"/>
<stop offset="0.0001" stop-color="#DC8DF8"/>
<stop offset="0.895833" stop-color="#A9C4F3"/>
</linearGradient>
</defs>
</svg>
